# xmcd
#
# Track frame offsets:
#	150
#	6778
#	26294
#	47602
#	65892
#	79658
#	93613
#	103833
#	117067
#	135429
#	150801
#	159852
#
# Disc length: 2403 seconds
#
# Revision: 1
# Processed by: cddbd v1.5.2PL0 Copyright (c) Steve Scherf et al.
# Submitted via: audiograbber 1.83.01
#
DISCID=8309610c
DTITLE=Mini Mansions - Mini Mansions
DYEAR=2011
DGENRE=psychedelic rock
TTITLE0=Vignette #1
TTITLE1=The Room Outside
TTITLE2=Crime of the Season
TTITLE3=Monk
TTITLE4=Wünderbars
TTITLE5=Seven Sons
TTITLE6=Vignette #2
TTITLE7=Kiddie Hypnogogia
TTITLE8=Majik Marker
TTITLE9=Girls
TTITLE10=Vignette #3
TTITLE11=Thriller Escapade
EXTD=
EXTT0=
EXTT1=
EXTT2=
EXTT3=
EXTT4=
EXTT5=
EXTT6=
EXTT7=
EXTT8=
EXTT9=
EXTT10=
EXTT11=
PLAYORDER=
